<svg width="200" height="200" viewBox="0 0 200 200" fill="none" xmlns="http://www.w3.org/2000/svg">
<g clip-path="url(#clip0_69_198)">
<path d="M0 0H200V200H0V0Z" fill="#FE4328"/>
<path d="M84.4446 154.444L115.556 154.444L112.222 146.667L87.7779 146.667L84.4446 154.444Z" fill="#F3ECEB"/>
<path d="M94.1665 154.444L94.1665 124.111L105.833 124.111L105.833 154.444L94.1665 154.444Z" fill="#F3ECEB"/>
<path d="M135 100C135 119.33 119.33 135 100 135C80.67 135 65 119.33 65 100H76.6667C76.6667 112.887 87.1134 123.333 100 123.333C112.887 123.333 123.333 112.887 123.333 100H135Z" fill="#F3ECEB"/>
<path d="M99.9998 65C100.963 65 101.793 65 101.793 66.7213V66.7248C101.793 66.7284 101.793 66.7351 101.794 66.744C101.795 66.7623 101.796 66.7918 101.798 66.8308C101.802 66.9089 101.81 67.0272 101.82 67.1814C101.841 67.4901 101.876 67.9419 101.933 68.5004C102.047 69.6198 102.245 71.1568 102.585 72.8298C103.288 76.2883 105.039 79.3722 107 81.3333C108.961 83.2945 112.045 85.0455 115.503 85.7479C117.176 86.0877 118.713 86.2862 119.833 86.4C120.391 86.4567 120.843 86.4922 121.152 86.513C121.306 86.5235 121.424 86.5308 121.502 86.535C121.541 86.537 121.571 86.5385 121.589 86.5393C121.598 86.5398 121.605 86.5401 121.608 86.5402H121.611C123.333 86.5402 123.333 87.3703 123.333 88.3333C123.333 89.2963 123.333 90.1536 121.611 90.1256L121.612 90.1265H121.608C121.605 90.1266 121.598 90.1269 121.589 90.1273C121.571 90.1282 121.541 90.1296 121.502 90.1317C121.424 90.1359 121.306 90.1432 121.152 90.1536C120.843 90.1745 120.391 90.2099 119.833 90.2667C118.713 90.3804 117.176 90.5789 115.503 90.9187C112.045 91.6212 108.961 93.3722 107 95.3333C105.039 97.2945 103.288 100.378 102.585 103.837C102.245 105.51 102.047 107.047 101.933 108.166C101.876 108.725 101.841 109.177 101.82 109.485C101.81 109.639 101.802 109.758 101.798 109.836C101.796 109.875 101.795 109.904 101.794 109.923C101.793 109.932 101.793 109.938 101.793 109.942V109.945C101.793 111.667 100.963 111.667 99.9998 111.667C99.0371 111.667 98.2067 111.667 98.2067 109.945V109.942C98.2066 109.938 98.2063 109.932 98.2058 109.923C98.205 109.904 98.2035 109.875 98.2015 109.836C98.1973 109.758 98.19 109.639 98.1796 109.485C98.1587 109.177 98.1232 108.725 98.0665 108.166C97.9527 107.047 97.7543 105.51 97.4145 103.837C96.712 100.378 94.961 97.2945 92.9998 95.3333C91.0387 93.3722 87.9548 91.6212 84.4963 90.9187C82.8233 90.5789 81.2863 90.3804 80.1669 90.2667C79.6084 90.2099 79.1566 90.1745 78.8479 90.1536C78.6937 90.1432 78.5754 90.1359 78.4973 90.1317C78.4583 90.1296 78.4288 90.1282 78.4105 90.1273C78.4016 90.1269 78.3949 90.1266 78.3913 90.1265H78.3878L78.3886 90.1256C76.6665 90.1256 76.6665 89.2963 76.6665 88.3333C76.6665 87.3703 76.6665 86.5402 78.3886 86.5402H78.3913C78.3949 86.5401 78.4016 86.5398 78.4105 86.5393C78.4288 86.5385 78.4583 86.537 78.4973 86.535C78.5754 86.5308 78.6937 86.5235 78.8479 86.513C79.1566 86.4922 79.6084 86.4567 80.1669 86.4C81.2863 86.2862 82.8233 86.0877 84.4963 85.7479C87.9548 85.0455 91.0387 83.2945 92.9998 81.3333C94.961 79.3722 96.712 76.2883 97.4145 72.8298C97.7543 71.1568 97.9527 69.6198 98.0665 68.5004C98.1232 67.9419 98.1587 67.4901 98.1796 67.1814C98.19 67.0272 98.1973 66.9089 98.2015 66.8308C98.2035 66.7918 98.205 66.7623 98.2058 66.744C98.2063 66.7351 98.2066 66.7284 98.2067 66.7248V66.7213C98.1796 65 99.0371 65 99.9998 65Z" fill="#F3ECEB"/>
<path d="M100 30C104.306 30 108.521 30.3889 112.612 31.1332L115.168 43.6582C120.104 44.9838 124.782 46.9411 129.109 49.4376L139.772 42.389C146.74 47.2084 152.791 53.2593 157.61 60.227L150.562 70.8903C153.058 75.2174 155.015 79.8949 156.341 84.8311L168.866 87.3877C169.61 91.4789 170 95.694 170 100C170 104.306 169.61 108.521 168.866 112.612L156.341 115.168C155.015 120.104 153.058 124.782 150.562 129.109L157.61 139.772C152.969 146.482 147.187 152.341 140.543 157.069L127.61 137.624C139.166 129.13 146.667 115.441 146.667 100C146.667 74.2267 125.773 53.3333 100 53.3333C74.2267 53.3333 53.3333 74.2267 53.3333 100C53.3333 115.441 60.8335 129.13 72.3889 137.624L59.4553 157.069C52.8119 152.341 47.0297 146.482 42.389 139.772L49.4376 129.109C46.9411 124.782 44.9838 120.104 43.6582 115.168L31.1332 112.612C30.3889 108.521 30 104.306 30 100C30 95.694 30.3888 91.4789 31.1332 87.3877L43.6582 84.8311C44.9839 79.8949 46.941 75.2174 49.4376 70.8903L42.389 60.227C47.2084 53.2593 53.2593 47.2084 60.227 42.389L70.8903 49.4376C75.2174 46.941 79.8949 44.9839 84.8311 43.6582L87.3877 31.1332C91.4789 30.3888 95.694 30 100 30Z" fill="#F3ECEB"/>
<path d="M115.555 154.444L112.611 168.866C108.52 169.61 104.306 170 99.9999 170C95.6939 170 91.4788 169.61 87.3876 168.866L84.4443 154.444H115.555Z" fill="#F3ECEB"/>
</g>
<defs>
<clipPath id="clip0_69_198">
<rect width="200" height="200" fill="white"/>
</clipPath>
</defs>
</svg>
