<svg width="10" height="20" viewBox="0 0 10 20" fill="none" xmlns="http://www.w3.org/2000/svg">
<path d="M5 0C6.733 0 8.1492 1.35645 8.2449 3.06546L8.25 3.24987L8.251 11.202L8.331 11.2709C9.2565 12.0975 9.8482 13.2418 9.9746 14.4939L9.9936 14.7457L10 15C10 17.7614 7.7614 20 5 20C2.23858 20 0 17.7614 0 15C0 13.6373 0.5496 12.3655 1.48922 11.4396L1.66993 11.2701L1.749 11.202L1.75 3.25C1.75 1.57886 3.0113 0.20232 4.6339 0.0204L4.8156 0.00514007L5 0ZM5 1.5C4.0818 1.5 3.3288 2.20711 3.2558 3.10651L3.25 3.25004L3.2495 11.9445L2.94128 12.1691C2.04185 12.8246 1.5 13.8664 1.5 15C1.5 16.933 3.067 18.5 5 18.5C6.933 18.5 8.5 16.933 8.5 15C8.5 13.9376 8.0241 12.9558 7.2239 12.2971L7.0595 12.1697L6.7515 11.9451L6.75 3.25C6.75 2.2835 5.9665 1.5 5 1.5ZM5 6C5.4142 6 5.75 6.33579 5.75 6.75L5.7506 12.6146C6.7646 12.9334 7.5 13.8808 7.5 15C7.5 16.3807 6.3807 17.5 5 17.5C3.6193 17.5 2.5 16.3807 2.5 15C2.5 13.8804 3.2359 12.9328 4.2504 12.6143L4.25 6.75C4.25 6.33579 4.5858 6 5 6Z" fill="#CCD0D7"/>
</svg>
