<svg width="20" height="17" viewBox="0 0 20 17" fill="none" xmlns="http://www.w3.org/2000/svg">
<path d="M9.75 10.3125C9.21375 10.3125 8.75485 10.1107 8.3733 9.70716C7.99175 9.30359 7.80065 8.81787 7.8 8.25C7.79935 7.68212 7.99045 7.19675 8.3733 6.79387C8.75615 6.391 9.21505 6.18887 9.75 6.1875C10.2849 6.18612 10.7442 6.38825 11.1277 6.79387C11.5112 7.1995 11.7019 7.68487 11.7 8.25C11.698 8.81512 11.5073 9.30084 11.1277 9.70716C10.7481 10.1135 10.2888 10.3152 9.75 10.3125ZM9.75 12.375C10.8225 12.375 11.7406 11.9711 12.5044 11.1633C13.2681 10.3555 13.65 9.38437 13.65 8.25C13.65 7.11562 13.2681 6.14453 12.5044 5.33672C11.7406 4.52891 10.8225 4.125 9.75 4.125C8.6775 4.125 7.75937 4.52891 6.99562 5.33672C6.23187 6.14453 5.85 7.11562 5.85 8.25C5.85 9.38437 6.23187 10.3555 6.99562 11.1633C7.75937 11.9711 8.6775 12.375 9.75 12.375ZM1.95 16.5C1.41375 16.5 0.95485 16.2982 0.5733 15.8947C0.19175 15.4911 0.00065 15.0054 0 14.4375V2.0625C0 1.49531 0.1911 1.00994 0.5733 0.606375C0.9555 0.202812 1.4144 0.0006875 1.95 0H17.55C18.0862 0 18.5455 0.202125 18.9277 0.606375C19.3099 1.01062 19.5006 1.496 19.5 2.0625V14.4375C19.5 15.0047 19.3092 15.4904 18.9277 15.8947C18.5461 16.2989 18.0869 16.5007 17.55 16.5H1.95ZM1.95 14.4375H17.55V2.0625H1.95V14.4375Z" fill="#363E47"/>
</svg>
