<svg width="24" height="21" viewBox="0 0 24 21" fill="none" xmlns="http://www.w3.org/2000/svg">
<path d="M11.628 14.419L9.581 12.279L16.372 6.326L17.582 7.628L11.628 14.419ZM20.465 20.466C22.605 18.326 24 15.349 24 12C24 5.396 18.605 0 12 0C5.395 0 0 5.396 0 12C0 15.35 1.302 18.326 3.535 20.466L5.209 18.791C3.442 17.024 2.419 14.698 2.419 12.001C2.41703 10.7422 2.66348 9.4953 3.14425 8.33187C3.62502 7.16845 4.33064 6.11133 5.22068 5.2211C6.11073 4.33087 7.1677 3.62502 8.33102 3.14402C9.49435 2.66301 10.7412 2.41629 12 2.418C13.2587 2.41629 14.5053 2.66294 15.6685 3.14382C16.8317 3.62471 17.8886 4.33037 18.7786 5.22039C19.6686 6.11041 20.3743 7.16729 20.8552 8.33049C21.3361 9.49368 21.5827 10.7403 21.581 11.999C21.581 14.604 20.465 17.023 18.791 18.79L20.465 20.466Z" fill="#CCD0D7"/>
</svg>
