<svg width="22" height="21" viewBox="0 0 22 21" fill="none" xmlns="http://www.w3.org/2000/svg">
<path d="M7.75 1.97302C3.74202 2.88247 0.75 6.46683 0.75 10.75C0.75 11.2611 0.7926 11.7622 0.87444 12.25M7.75 1.97302L4.75 0.75M7.75 1.97302L6.75 4.75M17.8145 14.75C18.4133 13.545 18.75 12.1868 18.75 10.75C18.75 6.29051 15.5066 2.58855 11.25 1.87444M17.8145 14.75L20.75 12.75M17.8145 14.75L16.25 11.75M2.26555 15.75C3.88007 18.162 6.62958 19.75 9.75 19.75C12.0551 19.75 14.1577 18.8834 15.75 17.4583M2.26555 15.75H5.75M2.26555 15.75V19.25" stroke="#CCD0D7" stroke-width="1.5" stroke-linecap="round" stroke-linejoin="round"/>
</svg>
