<svg width="16" height="20" viewBox="0 0 16 20" fill="none" xmlns="http://www.w3.org/2000/svg">
<path d="M2 1C2 0.44772 1.55228 0 1 0C0.44772 0 0 0.44772 0 1V19C0 19.5523 0.44772 20 1 20C1.55228 20 2 19.5523 2 19V1ZM16 1C16 0.44772 15.5523 0 15 0C14.4477 0 14 0.44772 14 1V19C14 19.5523 14.4477 20 15 20C15.5523 20 16 19.5523 16 19V1ZM9 1C9 0.44772 8.5523 0 8 0C7.4477 0 7 0.44772 7 1V4C7 4.55228 7.4477 5 8 5C8.5523 5 9 4.55228 9 4V1ZM7 11.5C7 12.0523 7.4477 12.5 8 12.5C8.5523 12.5 9 12.0523 9 11.5V8.5C9 7.94772 8.5523 7.5 8 7.5C7.4477 7.5 7 7.94772 7 8.5V11.5ZM7 16C7 15.4477 7.4477 15 8 15C8.5523 15 9 15.4477 9 16V19C9 19.5523 8.5523 20 8 20C7.4477 20 7 19.5523 7 19V16Z" fill="#CCD0D7"/>
</svg>
