<svg width="21" height="21" viewBox="0 0 21 21" fill="none" xmlns="http://www.w3.org/2000/svg">
<path fill-rule="evenodd" clip-rule="evenodd" d="M1.3125 10.4984C1.31274 8.43561 2.00715 6.43293 3.28392 4.81279C4.56068 3.19264 6.34553 2.04928 8.35108 1.56681C10.3566 1.08434 12.4662 1.29082 14.3401 2.153C16.2141 3.01519 17.7434 4.48292 18.6818 6.31988C19.6201 8.15685 19.9131 10.2562 19.5133 12.2798C19.1136 14.3035 18.0445 16.1338 16.4781 17.476C14.9118 18.8182 12.9393 19.5942 10.8783 19.6792C8.81725 19.7641 6.78761 19.153 5.11612 17.9442C4.89693 17.7854 4.83262 17.4113 5.1135 17.1304L7.476 14.7679C8.36076 15.4299 9.45449 15.7508 10.5566 15.6717C11.6588 15.5926 12.6955 15.1189 13.4767 14.3374L15.3326 12.4803C15.4556 12.3572 15.5248 12.1903 15.5248 12.0163C15.5248 11.8423 15.4556 11.6754 15.3326 11.5523L14.4047 10.6244L16.4509 8.57294C16.5135 8.51232 16.5633 8.43983 16.5976 8.35972C16.6319 8.27961 16.6499 8.19347 16.6505 8.10634C16.6511 8.0192 16.6344 7.93282 16.6013 7.85222C16.5682 7.77162 16.5194 7.69842 16.4576 7.63689C16.3959 7.57536 16.3226 7.52674 16.2419 7.49385C16.1612 7.46097 16.0748 7.44449 15.9877 7.44537C15.9005 7.44624 15.8144 7.46447 15.7344 7.49897C15.6544 7.53347 15.5821 7.58356 15.5216 7.64632L13.4754 9.69644L11.6196 7.84057L13.6671 5.79045C13.7321 5.73049 13.7844 5.658 13.8207 5.57733C13.857 5.49666 13.8766 5.40948 13.8784 5.32103C13.8802 5.23258 13.864 5.14469 13.831 5.06263C13.7979 4.98057 13.7486 4.90605 13.686 4.84354C13.6234 4.78102 13.5488 4.73182 13.4667 4.69887C13.3846 4.66592 13.2967 4.64991 13.2082 4.6518C13.1198 4.6537 13.0326 4.67346 12.952 4.70989C12.8714 4.74633 12.799 4.79869 12.7391 4.86382L10.6916 6.91132L9.76368 5.9847C9.64062 5.86167 9.47373 5.79255 9.29971 5.79255C9.1257 5.79255 8.95881 5.86167 8.83574 5.9847L6.97987 7.84057C6.19874 8.62171 5.72526 9.65817 5.64619 10.76C5.56713 11.8619 5.88777 12.9553 6.54937 13.84L4.18687 16.2025C3.42562 16.9638 3.37312 18.3025 4.34569 19.0073C6.25578 20.3891 8.57532 21.0879 10.9308 20.9912C13.2864 20.8944 15.5408 20.0078 17.3312 18.474C19.1215 16.9403 20.3436 14.8486 20.8007 12.5358C21.2578 10.2231 20.9233 7.82377 19.851 5.72424C18.7788 3.6247 17.0311 1.9471 14.8895 0.96155C12.7479 -0.0240024 10.3369 -0.260161 8.04477 0.291097C5.75262 0.842356 3.71268 2.14895 2.25338 4.00052C0.79409 5.85208 0.000363886 8.14088 0 10.4984C0 10.6724 0.0691404 10.8393 0.192211 10.9624C0.315282 11.0855 0.482201 11.1546 0.65625 11.1546C0.830298 11.1546 0.997217 11.0855 1.12029 10.9624C1.24336 10.8393 1.3125 10.6724 1.3125 10.4984Z" fill="#CCD0D7"/>
</svg>
